<svg width="220" height="44" viewBox="0 0 220 44" fill="none" xmlns="http://www.w3.org/2000/svg">
  <rect width="44" height="44" rx="12" fill="#1A1A1A"/>
  <path d="M12 30V14H17.08L22 23.08L26.92 14H32V30H27.64V21.36L24.04 28H19.96L16.36 21.36V30H12Z" fill="white"/>
  <path d="M57.318 29V14.6H69.078V18.32H61.822V20.23H68.412V23.77H61.822V25.28H69.258V29H57.318Z" fill="#1A1A1A"/>
  <path d="M72.2874 29V14.6H76.7914V25.1H83.4894V29H72.2874Z" fill="#1A1A1A"/>
  <path d="M85.6468 29V14.6H90.1508V20.05L94.7628 14.6H100.303L94.8528 20.95L100.483 29H94.9608L91.6728 24.252L90.1508 25.99V29H85.6468Z" fill="#1A1A1A"/>
  <path d="M107.767 29.324C103.155 29.324 100.011 26.324 100.011 21.8C100.011 17.276 103.155 14.276 107.767 14.276C111.595 14.276 114.199 16.114 115.091 19.06L110.515 19.726C110.065 18.636 109.101 18.014 107.767 18.014C105.849 18.014 104.605 19.438 104.605 21.8C104.605 24.162 105.849 25.586 107.767 25.586C109.101 25.586 110.065 24.964 110.515 23.874L115.091 24.54C114.199 27.486 111.595 29.324 107.767 29.324Z" fill="#1A1A1A"/>
  <path d="M116.65 29L121.892 14.6H127.036L132.278 29H127.522L126.838 26.91H122.09L121.406 29H116.65ZM123.09 23.55H125.838L124.46 19.348L123.09 23.55Z" fill="#1A1A1A"/>
  <path d="M137.716 29L132.474 14.6H137.32L140.374 24.09L143.428 14.6H148.274L143.032 29H137.716Z" fill="#1A1A1A"/>
  <path d="M149.795 29V14.6H154.299V29H149.795Z" fill="#1A1A1A"/>
  <path d="M163.301 29.324C158.689 29.324 155.545 26.324 155.545 21.8C155.545 17.276 158.689 14.276 163.301 14.276C167.129 14.276 169.733 16.114 170.625 19.06L166.049 19.726C165.599 18.636 164.635 18.014 163.301 18.014C161.383 18.014 160.139 19.438 160.139 21.8C160.139 24.162 161.383 25.586 163.301 25.586C164.635 25.586 165.599 24.964 166.049 23.874L170.625 24.54C169.733 27.486 167.129 29.324 163.301 29.324Z" fill="#1A1A1A"/>
  <path d="M173.532 29V14.6H185.292V18.32H178.036V20.23H184.626V23.77H178.036V25.28H185.472V29H173.532Z" fill="#1A1A1A"/>
</svg>
